<?xml version="1.0" encoding="UTF-8" standalone="no"?>
<!-- Uploaded to: SVG Repo, www.svgrepo.com, Generator: SVG Repo Mixer Tools -->

<svg
   xmlns:dc="http://purl.org/dc/elements/1.1/"
   xmlns:cc="http://creativecommons.org/ns#"
   xmlns:rdf="http://www.w3.org/1999/02/22-rdf-syntax-ns#"
   xmlns:svg="http://www.w3.org/2000/svg"
   xmlns="http://www.w3.org/2000/svg"
   xmlns:sodipodi="http://sodipodi.sourceforge.net/DTD/sodipodi-0.dtd"
   xmlns:inkscape="http://www.inkscape.org/namespaces/inkscape"
   width="30"
   height="30"
   viewBox="0 0 0.9 0.9"
   version="1.1"
   id="svg827"
   sodipodi:docname="vercel.svg"
   inkscape:version="0.92.4 (5da689c313, 2019-01-14)"
   style="fill:none">
  <metadata
     id="metadata833">
    <rdf:RDF>
      <cc:Work
         rdf:about="">
        <dc:format>image/svg+xml</dc:format>
        <dc:type
           rdf:resource="http://purl.org/dc/dcmitype/StillImage" />
        <dc:title></dc:title>
      </cc:Work>
    </rdf:RDF>
  </metadata>
  <defs
     id="defs831" />
  <sodipodi:namedview
     pagecolor="#ffffff"
     bordercolor="#666666"
     borderopacity="1"
     objecttolerance="10"
     gridtolerance="10"
     guidetolerance="10"
     inkscape:pageopacity="0"
     inkscape:pageshadow="2"
     inkscape:window-width="1366"
     inkscape:window-height="705"
     id="namedview829"
     showgrid="false"
     inkscape:zoom="3.8042345"
     inkscape:cx="-21.204289"
     inkscape:cy="23.817463"
     inkscape:window-x="-8"
     inkscape:window-y="-8"
     inkscape:window-maximized="1"
     inkscape:current-layer="svg827" />
  <path
     style="fill:#ff0000;stroke-width:0.04172551"
     d="m 0.64555617,0.09087858 c -0.0476793,-8.4638e-4 -0.0987286,0.014525 -0.14848629,0.0509517 l 0.0806156,0.0805877 c 0.0122214,0.0122192 0.0122173,0.0320502 0,0.0442732 -0.0122215,0.0122232 -0.0320238,0.0122187 -0.0442454,0 l -0.083454,-0.0833983 C 0.262228,-0.01178074 0.03274411,0.13212632 0.03274411,0.335035 c 0,0.18380508 0.1376179,0.28981948 0.25478646,0.3800927 0.0121785,0.009384 0.024116,0.0186032 0.0356745,0.0277164 0.0433223,0.0341523 0.0850556,0.0663128 0.12678104,0.0663128 0.0417255,0 0.0834576,-0.0321605 0.12678102,-0.0663128 0.0115581,-0.009113 0.0235269,-0.0183322 0.0357023,-0.0277164 0.11716942,-0.0902732 0.25478645,-0.19628762 0.25478645,-0.3800927 0,-0.1338298 -0.0998529,-0.2419935 -0.22169971,-0.24415642 z"
     id="path825"
     inkscape:connector-curvature="0" />
</svg>
